<?xml version="1.0" encoding="UTF-8"?>
<svg width="236px" height="236px" viewBox="0 0 236 236" version="1.1" xmlns="http://www.w3.org/2000/svg" xmlns:xlink="http://www.w3.org/1999/xlink">
    <title>Group 3</title>
    <g id="Page-1" stroke="none" stroke-width="1" fill="none" fill-rule="evenodd">
        <g id="Logo---Clear-Spacing" transform="translate(-586.000000, -789.000000)">
            <g id="Group-3" transform="translate(586.000000, 789.000000)">
                <path d="M236,118 C236,183.169852 183.169852,236 118,236 C52.8301475,236 0,183.169852 0,118 C0,52.8301475 52.8301475,0 118,0 C183.169852,0 236,52.8301475 236,118" id="Fill-77" fill="#0B3F5E"></path>
                <path d="M167.90836,70.1274374 L167.90836,85.7165227 L167.90836,110.575589 L167.90836,116.295513 C166.266894,114.688462 118.635797,68.019915 118.615875,68 C118.615875,74.500936 118.615008,136.023446 118.615008,136.859875 C118.615008,137.336968 118.540514,137.27376 118.978816,137.371603 C121.291594,137.885062 123.840847,138.008016 126.2004,138.103261 C131.74587,138.328387 137.494898,135.76282 138.620104,129.870589 C139.180541,126.939627 138.599315,123.881381 136.728303,121.518428 C134.762875,119.037716 131.653185,117.642803 128.492389,117.831562 C126.634371,117.942393 124.830924,118.600453 123.328917,119.698373 C129.225202,114.160282 138.193929,113.196572 145.029184,117.638474 C151.458186,121.817152 154.560081,129.861065 152.476848,137.265967 C150.206514,145.326331 142.41843,150.614186 134.131409,150.128434 C127.06401,149.714549 120.796122,146.41819 114.384444,143.71928 C110.081984,141.90875 105.780391,140.099952 101.246653,138.949214 C97.5054966,137.999357 93.6283454,137.262503 89.7641874,137.085 C92.8591519,132.723624 108.235227,110.030093 109.880157,107.10952 C115.433423,97.2412241 111.305937,84.3458538 103.088213,76.572092 C95.4976243,69.3931814 84.2628944,66.9583609 74.4262257,70.56903 C64.8572156,74.0801242 57.6910691,82.8253898 56.2661554,92.9309338 C56.0868502,94.2063572 55.9976307,95.4939028 55.9976307,96.7814483 L74.1083271,96.7814483 C74.1083271,96.7814483 74.1507713,95.7995541 74.1758914,95.583953 C74.2287301,95.1224454 74.3127524,94.6644013 74.4296906,94.2150159 C74.6358483,93.4201492 74.9424863,92.6521244 75.3452734,91.9360516 C78.8681452,85.6654365 88.4579443,85.5398856 92.2476084,91.6052901 C94.2225647,94.7657079 94.1480708,99.4457238 91.9695553,102.471066 C91.644727,102.922183 50.053705,159.694543 50,159.765544 C52.7839955,157.946355 56.0236169,156.702103 59.1731526,155.698562 C67.2055081,153.140789 75.7879062,152.500046 84.14509,153.474148 C90.0344445,154.160781 95.8163892,155.643147 101.362725,157.729022 C106.43178,159.635663 111.291212,162.054032 116.365464,163.954612 C122.052992,166.083782 128.015108,167.751443 134.114951,167.975703 C139.078328,168.158401 144.064227,167.309851 148.675057,165.461223 C157.567558,161.895579 164.787409,154.704546 168.392571,145.831998 C168.848197,144.710699 169.245787,143.565156 169.584474,142.404027 C174.371145,147.075384 185.315695,157.754998 186,158.422583 L186,146.057989 L186,118.165787 L186,88.5487765 L186,71.008025 L186,70.1274374 L184.991733,70.1274374 L182.393106,70.1274374 L168.874183,70.1274374 L167.90836,70.1274374 Z" id="Fill-81" fill="#459FD7"></path>
            </g>
        </g>
    </g>
</svg>