<?xml version="1.0" encoding="UTF-8"?>
<svg width="950px" height="178px" viewBox="0 0 950 178" version="1.1" xmlns="http://www.w3.org/2000/svg" xmlns:xlink="http://www.w3.org/1999/xlink">
    <title>2NDNATURE_software_black_logo (1)</title>
    <g id="Page-1" stroke="none" stroke-width="1" fill="none" fill-rule="evenodd">
        <g id="2NDNATURE_software_black_logo-(1)" fill="#004667" fill-rule="nonzero">
            <g id="_x32_NDNature_Primary_28_">
                <path d="M219.24,3.24 L258.7,3.24 C294.93,3.24 324.2,32.51 324.2,68.74 C324.2,104.97 294.93,134.24 258.7,134.24 L219.24,134.24 L219.24,3.24 L219.24,3.24 Z M258.7,106.74 C280.05,106.74 296.71,90.08 296.71,68.73 C296.71,47.54 279.89,30.72 258.7,30.72 L246.73,30.72 L246.73,106.73 L258.7,106.74 L258.7,106.74 Z" id="Shape"></path>
                <polygon id="Path" points="362.19 64.37 362.19 134.24 334.7 134.24 334.7 1.42108547e-14 409.58 73.42 409.58 3.24 437.07 3.24 437.07 137.48"></polygon>
                <path d="M528.98,116.45 L482.72,116.45 L475.28,134.24 L444.23,134.24 L505.85,0 L567.47,134.24 L536.42,134.24 L528.98,116.45 Z M518.79,92.19 L505.85,61.14 L492.91,92.19 C492.91,92.19 518.79,92.19 518.79,92.19 Z" id="Shape"></path>
                <polygon id="Path" points="576.87 30.73 544.85 30.73 544.85 3.24 636.23 3.24 636.23 30.73 604.37 30.73 604.37 134.24 576.88 134.24 576.88 30.73"></polygon>
                <path d="M676.23,3.61 L676.23,88.36 C676.23,99.84 685.13,108.74 696.61,108.74 C708.1,108.74 716.99,99.84 716.99,88.36 L716.99,3.61 L744.49,3.61 L744.49,88.36 C744.49,114.88 723.14,136.23 696.61,136.23 C670.09,136.23 648.74,114.88 648.74,88.36 L648.74,3.61 L676.23,3.61 Z" id="Path"></path>
                <path d="M824.21,134.24 L798.66,88.15 L785.23,88.15 L785.23,134.24 L757.74,134.24 L757.74,3.24 L807.39,3.24 C831.49,3.24 849.77,21.35 849.77,45.61 C849.77,62.92 840.71,76.99 826.8,83.78 L856.07,134.24 L824.21,134.24 Z M785.23,60.65 L807.39,60.65 C816.45,60.65 822.27,54.83 822.27,45.61 C822.27,36.56 816.45,30.73 807.39,30.73 L785.23,30.73 L785.23,60.65 Z" id="Shape"></path>
                <polygon id="Path" points="865.38 3.24 949.48 3.24 949.48 30.73 892.87 30.73 892.87 54.99 943.01 54.99 943.01 82.48 892.87 82.48 892.87 106.74 949.48 106.74 949.48 134.23 865.38 134.23"></polygon>
                <path d="M179.18,3.24 C179.18,11.14 179.18,19.04 179.18,26.94 C179.18,39.54 179.18,52.14 179.18,64.73 C179.18,67.63 179.18,70.53 179.18,73.43 C176.69,70.99 104.3,0.04 104.27,0.01 C104.27,9.89 104.27,103.43 104.27,104.7 C104.27,105.43 104.16,105.33 104.82,105.48 C108.33,106.26 112.21,106.45 115.79,106.59 C124.22,106.93 132.95,103.03 134.67,94.07 C135.52,89.61 134.64,84.96 131.79,81.37 C128.8,77.6 124.08,75.48 119.27,75.77 C116.45,75.94 113.7,76.94 111.42,78.61 C120.38,70.19 134.01,68.73 144.4,75.48 C154.17,81.83 158.89,94.06 155.72,105.32 C152.27,117.57 140.43,125.61 127.84,124.88 C117.1,124.25 107.57,119.24 97.83,115.14 C91.29,112.39 84.76,109.64 77.87,107.89 C72.18,106.45 66.29,105.33 60.42,105.06 C65.12,98.43 88.49,63.93 90.99,59.49 C99.43,44.49 93.16,24.88 80.67,13.06 C69.14,2.12 52.06,-1.58 37.12,3.91 C22.58,9.25 11.69,22.54 9.52,37.91 C9.25,39.85 9.11,41.81 9.11,43.76 C14.7,43.76 36.63,43.76 36.63,43.76 C36.63,43.76 36.7,42.27 36.73,41.94 C36.81,41.24 36.94,40.54 37.12,39.86 C37.43,38.65 37.9,37.48 38.51,36.4 C43.86,26.87 58.44,26.68 64.2,35.9 C67.2,40.7 67.09,47.82 63.78,52.42 C63.29,53.11 0.08,139.42 -1.42108547e-14,139.53 C4.23,136.76 9.15,134.87 13.94,133.35 C26.15,129.46 39.19,128.49 51.89,129.97 C60.84,131.01 69.63,133.27 78.06,136.44 C85.76,139.34 93.15,143.02 100.86,145.91 C109.5,149.15 118.56,151.68 127.83,152.02 C135.37,152.3 142.95,151.01 149.96,148.2 C163.47,142.78 174.45,131.85 179.92,118.36 C180.61,116.66 181.22,114.92 181.73,113.15 C189.01,120.25 205.64,136.49 206.68,137.5 C206.68,131.23 206.68,124.97 206.68,118.7 C206.68,104.57 206.68,90.43 206.68,76.3 C206.68,61.29 206.68,46.28 206.68,31.27 C206.68,22.38 206.68,13.49 206.68,4.6 C206.68,4.4 206.68,3.26 206.68,3.26 C206.68,3.26 205.33,3.26 205.15,3.26 C203.83,3.26 202.52,3.26 201.2,3.26 C194.35,3.26 187.5,3.26 180.66,3.26 C180.16,3.24 179.67,3.24 179.18,3.24 Z" id="Path"></path>
            </g>
            <g id="Group" transform="translate(217.230000, 146.330000)">
                <path d="M6.28,21.4 C6.71,25.84 10.9,26.72 12.99,26.72 C16.53,26.72 19.59,24.64 19.59,22 C19.59,18.72 15.83,17.96 10.73,16.56 C7.62,15.8 0.69,14.08 0.69,8.52 C0.64,3 6.97,2.84217094e-14 13.2,2.84217094e-14 C18.3,2.84217094e-14 24.69,2.08 25.18,8.16 L18.95,8.16 C18.52,6.56 17.55,4 12.99,4 C9.77,4 6.98,5.64 6.98,8.16 C6.98,11.04 9.93,11.76 16.32,13.52 C21.26,15.08 25.88,16.96 25.88,21.76 C25.88,26.56 21.53,30.71 13.05,30.71 C5.16,30.71 0.11,27.11 -2.84217094e-14,21.4 L6.28,21.4 L6.28,21.4 Z" id="Path"></path>
                <path d="M95.23,15.52 C95.23,6.2 104.84,0.01 116.01,0.01 C127.88,0.01 136.84,6.85 136.84,15.36 C136.84,23.88 127.88,30.71 115.95,30.71 C103.97,30.71 95.22,23.71 95.22,15.56 L95.22,15.52 L95.23,15.52 Z M101.52,15.36 C101.52,21.52 107.64,26.55 116.13,26.55 C124.77,26.55 130.52,21.15 130.52,15.4 C130.52,9.6 124.78,4.17 116.08,4.17 C107.43,4.17 101.53,9.37 101.53,15.32 L101.53,15.36 L101.52,15.36 Z" id="Shape"></path>
                <polygon id="Path" points="208.3 0.57 229.03 0.57 229.03 4.73 214.64 4.73 214.64 13.37 228.82 13.37 228.82 17.49 214.64 17.49 214.64 30.16 208.3 30.16 208.3 0.57"></polygon>
                <polygon id="Path" points="306.11 4.73 296.98 4.73 296.98 0.57 321.57 0.57 321.57 4.73 312.44 4.73 312.44 30.16 306.1 30.16 306.1 4.73"></polygon>
                <polygon id="Path" points="388.35 0.57 394.79 0.57 402.63 23.71 410.42 0.57 415.2 0.57 423.09 23.75 430.83 0.57 437.27 0.57 426.31 30.15 420.46 30.15 412.78 7.72 405.1 30.15 399.09 30.15"></polygon>
                <path d="M508.07,30.15 L501.2,30.15 L517.52,0.57 L523.26,0.57 L539.31,30.15 L532.44,30.15 L528.68,23.15 L511.71,23.15 L508.07,30.15 Z M520.15,6.05 L513.44,19.36 L526.97,19.36 L520.15,6.05 Z" id="Shape"></path>
                <path d="M608.94,0.57 L620.16,0.57 C626.39,0.57 629.61,1.21 631.7,2.29 C634.98,3.89 636.97,6.97 636.97,10.28 C636.97,12.36 636.16,14.36 634.71,15.92 C632.67,18.04 630.09,18.76 627.03,19.16 L636.37,30.15 L629.66,30.15 L618.76,16.8 L620.16,16.8 C622.9,16.8 626.23,16.72 628.11,15.52 C629.93,14.32 630.85,12.6 630.85,10.68 C630.85,8.68 629.56,6.72 627.47,5.68 C625.75,4.88 623.55,4.72 620.71,4.72 L615.29,4.72 L615.29,30.15 L608.95,30.15 L608.94,0.57 L608.94,0.57 Z" id="Path"></path>
                <polygon id="Path" points="707.45 0.57 729.68 0.57 729.68 4.73 713.78 4.73 713.78 13.12 729.46 13.12 729.46 17.24 713.78 17.24 713.78 25.99 729.68 25.99 729.68 30.15 707.45 30.15"></polygon>
            </g>
        </g>
    </g>
</svg>