<?xml version="1.0" encoding="utf-8"?>
<!-- Generator: Adobe Illustrator 25.3.1, SVG Export Plug-In . SVG Version: 6.00 Build 0)  -->
<svg version="1.1" id="Layer_1" xmlns="http://www.w3.org/2000/svg" xmlns:xlink="http://www.w3.org/1999/xlink" x="0px" y="0px"
	 viewBox="0 0 34 42" style="enable-background:new 0 0 34 42;" xml:space="preserve">
<style type="text/css">
	.st0{filter:url(#Adobe_OpacityMaskFilter);}
	.st1{fill-rule:evenodd;clip-rule:evenodd;fill:#FFFFFF;}
	.st2{mask:url(#mask-2_1_);}
	.st3{fill-rule:evenodd;clip-rule:evenodd;fill:#933AC8;}
	.st4{fill:none;stroke:#000000;stroke-width:2;}
</style>
<g id="Assets-Management">
	<g id="Shape_x2F_Color" transform="translate(-15.000000, -11.000000)">
		<g id="color-phase-design_1_" transform="translate(16.000000, 12.000000)">
			<g id="Mask">
			</g>
			<defs>
				<filter id="Adobe_OpacityMaskFilter" filterUnits="userSpaceOnUse" x="-14.1" y="-10.5" width="60.2" height="61">
					<feColorMatrix  type="matrix" values="1 0 0 0 0  0 1 0 0 0  0 0 1 0 0  0 0 0 1 0"/>
				</filter>
			</defs>
			<mask maskUnits="userSpaceOnUse" x="-14.1" y="-10.5" width="60.2" height="61" id="mask-2_1_">
				<g class="st0">
					<path id="path-1_1_" class="st1" d="M16,0c8.8,0,16,7.3,16,16.4l0,0l0,0C32,26,26.7,34.2,16,41C5.3,34.2,0,26,0,16.4
						C0,7.3,7.2,0,16,0z"/>
				</g>
			</mask>
			<g id="Group" class="st2">
				<g id="color-phase-design" transform="translate(-14.117647, -10.488372)">
					<rect x="0" y="0" class="st3" width="60.2" height="61"/>
				</g>
			</g>
		</g>
		<path class="st4" d="M32,12c4.4,0,8.3,1.8,11.2,4.6c2.9,2.9,4.7,6.8,4.8,11.2c0,1,0,1.7-0.1,2.3c-0.8,8.4-6.2,15.6-15.9,21.7
			c-9.7-6.1-15.1-13.3-15.9-21.7C16,29.5,16,28.8,16,28.2c0.1-4.6,1.9-8.6,4.8-11.5C23.7,13.8,27.6,12,32,12L32,12z"/>
	</g>
</g>
</svg>
