<?xml version="1.0" encoding="utf-8"?>
<!-- Generator: Adobe Illustrator 25.3.1, SVG Export Plug-In . SVG Version: 6.00 Build 0)  -->
<svg version="1.1" id="Layer_1" xmlns="http://www.w3.org/2000/svg" xmlns:xlink="http://www.w3.org/1999/xlink" x="0px" y="0px"
	 viewBox="0 0 38 34" style="enable-background:new 0 0 38 34;" xml:space="preserve">
<style type="text/css">
	.st0{filter:url(#Adobe_OpacityMaskFilter);}
	.st1{fill-rule:evenodd;clip-rule:evenodd;fill:#FFFFFF;}
	.st2{mask:url(#mask-2_1_);}
	.st3{fill-rule:evenodd;clip-rule:evenodd;fill:#808080;}
	.st4{fill:none;stroke:#000000;stroke-width:2.1111;}
</style>
<g id="Assets-Management">
	<g id="Shape_x2F_Color" transform="translate(-13.000000, -15.000000)">
		<g id="color-phase-design_1_" transform="translate(13.000000, 15.000000)">
			<g id="Mask" transform="translate(19.000000, 17.000000) rotate(180.000000) translate(-19.000000, -17.000000) ">
			</g>
			<defs>
				<filter id="Adobe_OpacityMaskFilter" filterUnits="userSpaceOnUse" x="-13" y="-15" width="64" height="64">
					<feColorMatrix  type="matrix" values="1 0 0 0 0  0 1 0 0 0  0 0 1 0 0  0 0 0 1 0"/>
				</filter>
			</defs>
			<mask maskUnits="userSpaceOnUse" x="-13" y="-15" width="64" height="64" id="mask-2_1_">
				<g class="st0">
					<path id="path-1_1_" class="st1" d="M8.6,34c-1.3,0-2.3-1-2.3-2.3l0-16.9H2.3c-1.3,0-2.3-1-2.3-2.3V2.3C0,1,1,0,2.3,0h33.5
						C37,0,38,1,38,2.3v10.3c0,1.3-1,2.3-2.3,2.3h-4.1l0,16.9c0,1.3-1,2.3-2.3,2.3H8.6z"/>
				</g>
			</mask>
			<g id="Group" class="st2">
				<g transform="translate(-13.000000, -15.000000)">
					<rect id="color-phase-design" class="st3" width="64" height="64"/>
				</g>
			</g>
		</g>
		<path id="Combined-Shape" class="st4" d="M21.6,47.9c-0.3,0-0.6-0.1-0.9-0.4c-0.2-0.2-0.4-0.5-0.4-0.9l0,0l0-17.9h-5.1
			c-0.3,0-0.6-0.1-0.9-0.4c-0.2-0.2-0.4-0.5-0.4-0.9l0,0V17.3c0-0.3,0.1-0.6,0.4-0.9c0.2-0.2,0.5-0.4,0.9-0.4l0,0h33.5
			c0.3,0,0.6,0.1,0.9,0.4c0.2,0.2,0.4,0.5,0.4,0.9l0,0v10.3c0,0.3-0.1,0.6-0.4,0.9c-0.2,0.2-0.5,0.4-0.9,0.4l0,0h-5.1l0,17.9
			c0,0.3-0.1,0.6-0.4,0.9c-0.2,0.2-0.5,0.4-0.9,0.4l0,0H21.6z"/>
	</g>
</g>
</svg>
