<svg width="41" height="37" viewBox="0 0 41 37" fill="none" xmlns="http://www.w3.org/2000/svg">
<mask id="path-1-inside-1_252_5620" fill="white">
<path fill-rule="evenodd" clip-rule="evenodd" d="M32.1667 36.8887C33.2713 36.8887 34.1667 35.9932 34.1667 34.8887V16.1388H39C40.1046 16.1388 41 15.2433 41 14.1388L41 2.28162C41 1.17705 40.1046 0.281622 39 0.281622L2 0.281622C0.895432 0.281622 0 1.17705 0 2.28162L0 14.1388C0 15.2433 0.895432 16.1388 2 16.1388H6.83335V34.8887C6.83335 35.9932 7.72879 36.8887 8.83335 36.8887L32.1667 36.8887Z"/>
</mask>
<path fill-rule="evenodd" clip-rule="evenodd" d="M32.1667 36.8887C33.2713 36.8887 34.1667 35.9932 34.1667 34.8887V16.1388H39C40.1046 16.1388 41 15.2433 41 14.1388L41 2.28162C41 1.17705 40.1046 0.281622 39 0.281622L2 0.281622C0.895432 0.281622 0 1.17705 0 2.28162L0 14.1388C0 15.2433 0.895432 16.1388 2 16.1388H6.83335V34.8887C6.83335 35.9932 7.72879 36.8887 8.83335 36.8887L32.1667 36.8887Z" fill="#DBDBDB"/>
<path d="M34.1667 16.1388V14.1388H32.1667V16.1388H34.1667ZM6.83335 16.1388H8.83335V14.1388H6.83335V16.1388ZM32.1667 34.8887L32.1667 34.8887V38.8887C34.3758 38.8887 36.1667 37.0978 36.1667 34.8887H32.1667ZM32.1667 16.1388V34.8887H36.1667V16.1388H32.1667ZM39 14.1388H34.1667V18.1388H39V14.1388ZM39 14.1388H39V18.1388C41.2091 18.1388 43 16.3479 43 14.1388H39ZM39 2.28162L39 14.1388H43L43 2.28162H39ZM39 2.28162H39H43C43 0.0724842 41.2091 -1.71838 39 -1.71838V2.28162ZM2 2.28162L39 2.28162V-1.71838L2 -1.71838V2.28162ZM2 2.28162V-1.71838C-0.209138 -1.71838 -2 0.0724842 -2 2.28162H2ZM2 14.1388L2 2.28162H-2L-2 14.1388H2ZM2 14.1388H-2C-2 16.3479 -0.209138 18.1388 2 18.1388V14.1388ZM6.83335 14.1388H2V18.1388H6.83335V14.1388ZM8.83335 34.8887V16.1388H4.83335V34.8887H8.83335ZM8.83335 34.8887V34.8887H4.83335C4.83335 37.0978 6.62422 38.8887 8.83335 38.8887V34.8887ZM32.1667 34.8887L8.83335 34.8887V38.8887L32.1667 38.8887V34.8887Z" fill="black" mask="url(#path-1-inside-1_252_5620)"/>
</svg>
