<?xml version="1.0" encoding="UTF-8"?>
<svg width="696px" height="240px" viewBox="0 0 696 240" version="1.1" xmlns="http://www.w3.org/2000/svg" xmlns:xlink="http://www.w3.org/1999/xlink">
    <title>Illegal Dumping</title>
    <g id="Illicit-DIscharge-v4" stroke="none" stroke-width="1" fill="none" fill-rule="evenodd">
        <g id="Illegal-Dumping">
            <polygon id="Path" fill="#FFFFFF" fill-rule="nonzero" points="0 0 696 0 696 240 0 240"></polygon>
            <g id="Group">
                <g>
                    <polygon id="Path" fill-opacity="0" fill="#FFFFFF" fill-rule="nonzero" points="0 0 696 0 696 240 0 240"></polygon>
                    <g transform="translate(25.222656, 49.000000)">
                        <g transform="translate(15.000000, 144.000000)">
                            <line x1="0" y1="0.5" x2="631.277344" y2="0.5" id="Path" stroke-opacity="0.45" stroke="#000000"></line>
                            <path d="M26.3032227,0.5 L26.3032227,4.5 M78.909668,0.5 L78.909668,4.5 M131.516113,0.5 L131.516113,4.5 M184.122559,0.5 L184.122559,4.5 M236.729004,0.5 L236.729004,4.5 M289.335449,0.5 L289.335449,4.5 M341.941895,0.5 L341.941895,4.5 M394.54834,0.5 L394.54834,4.5 M447.154785,0.5 L447.154785,4.5 M499.76123,0.5 L499.76123,4.5 M552.367676,0.5 L552.367676,4.5 M604.974121,0.5 L604.974121,4.5" id="Shape" stroke-opacity="0.45" stroke="#000000" stroke-width="0.5"></path>
                            <g transform="translate(16.303223, 10.500000)" fill="#000000" fill-opacity="0.45" fill-rule="nonzero" font-family="Helvetica" font-size="12" font-weight="normal">
                                <text id="Jan">
                                    <tspan x="0" y="11">Jan</tspan>
                                </text>
                                <text id="Feb">
                                    <tspan x="52.1064453" y="11">Feb</tspan>
                                </text>
                                <text id="Mar">
                                    <tspan x="104.712891" y="11">Mar</tspan>
                                </text>
                                <text id="Apr">
                                    <tspan x="158.319336" y="11">Apr</tspan>
                                </text>
                                <text id="May">
                                    <tspan x="208.925781" y="11">May</tspan>
                                </text>
                                <text id="Jun">
                                    <tspan x="263.032227" y="11">Jun</tspan>
                                </text>
                                <text id="Jul">
                                    <tspan x="317.638672" y="11">Jul</tspan>
                                </text>
                                <text id="Aug">
                                    <tspan x="367.245117" y="11">Aug</tspan>
                                </text>
                                <text id="Sep">
                                    <tspan x="419.851562" y="11">Sep</tspan>
                                </text>
                                <text id="Oct">
                                    <tspan x="473.958008" y="11">Oct</tspan>
                                </text>
                                <text id="Nov">
                                    <tspan x="525.064453" y="11">Nov</tspan>
                                </text>
                                <text id="Dec">
                                    <tspan x="577.670898" y="11">Dec</tspan>
                                </text>
                            </g>
                        </g>
                        <g>
                            <g transform="translate(15.000000, 5.500000)" id="Path" stroke="#000000" stroke-dasharray="0,0" stroke-opacity="0.15">
                                <path d="M0,139 L26.3032227,139 L78.909668,139 L131.516113,139 L184.122559,139 L236.729004,139 L289.335449,139 L341.941895,139 L394.54834,139 L447.154785,139 L499.76123,139 L552.367676,139 L604.974121,139 L631.277344,139"></path>
                                <path d="M0,115.916667 L26.3032227,115.916667 L78.909668,115.916667 L131.516113,115.916667 L184.122559,115.916667 L236.729004,115.916667 L289.335449,115.916667 L341.941895,115.916667 L394.54834,115.916667 L447.154785,115.916667 L499.76123,115.916667 L552.367676,115.916667 L604.974121,115.916667 L631.277344,115.916667"></path>
                                <path d="M0,92.8333333 L26.3032227,92.8333333 L78.909668,92.8333333 L131.516113,92.8333333 L184.122559,92.8333333 L236.729004,92.8333333 L289.335449,92.8333333 L341.941895,92.8333333 L394.54834,92.8333333 L447.154785,92.8333333 L499.76123,92.8333333 L552.367676,92.8333333 L604.974121,92.8333333 L631.277344,92.8333333"></path>
                                <path d="M0,69.75 L26.3032227,69.75 L78.909668,69.75 L131.516113,69.75 L184.122559,69.75 L236.729004,69.75 L289.335449,69.75 L341.941895,69.75 L394.54834,69.75 L447.154785,69.75 L499.76123,69.75 L552.367676,69.75 L604.974121,69.75 L631.277344,69.75"></path>
                                <path d="M0,46.6666667 L26.3032227,46.6666667 L78.909668,46.6666667 L131.516113,46.6666667 L184.122559,46.6666667 L236.729004,46.6666667 L289.335449,46.6666667 L341.941895,46.6666667 L394.54834,46.6666667 L447.154785,46.6666667 L499.76123,46.6666667 L552.367676,46.6666667 L604.974121,46.6666667 L631.277344,46.6666667"></path>
                                <path d="M0,23.5833333 L26.3032227,23.5833333 L78.909668,23.5833333 L131.516113,23.5833333 L184.122559,23.5833333 L236.729004,23.5833333 L289.335449,23.5833333 L341.941895,23.5833333 L394.54834,23.5833333 L447.154785,23.5833333 L499.76123,23.5833333 L552.367676,23.5833333 L604.974121,23.5833333 L631.277344,23.5833333"></path>
                                <path d="M0,0.5 L26.3032227,0.5 L78.909668,0.5 L131.516113,0.5 L184.122559,0.5 L236.729004,0.5 L289.335449,0.5 L341.941895,0.5 L394.54834,0.5 L447.154785,0.5 L499.76123,0.5 L552.367676,0.5 L604.974121,0.5 L631.277344,0.5"></path>
                            </g>
                            <g fill="#000000" fill-opacity="0.45" fill-rule="nonzero" font-family="Helvetica" font-size="12" font-weight="normal">
                                <text id="0">
                                    <tspan x="0" y="149.5">0</tspan>
                                </text>
                                <text id="1">
                                    <tspan x="0" y="126.416667">1</tspan>
                                </text>
                                <text id="2">
                                    <tspan x="0" y="103.333333">2</tspan>
                                </text>
                                <text id="3">
                                    <tspan x="0" y="80.25">3</tspan>
                                </text>
                                <text id="4">
                                    <tspan x="0" y="57.1666667">4</tspan>
                                </text>
                                <text id="5">
                                    <tspan x="0" y="34.0833333">5</tspan>
                                </text>
                                <text id="6">
                                    <tspan x="0" y="11">6</tspan>
                                </text>
                            </g>
                        </g>
                    </g>
                </g>
                <g transform="translate(40.222656, 52.000000)" id="Path">
                    <polygon fill-opacity="0" fill="#FFFFFF" fill-rule="nonzero" points="0 3 631.277344 3 631.277344 141.5 0 141.5"></polygon>
                    <g transform="translate(26.303223, 3.000000)" stroke-linecap="round" stroke-linejoin="round" stroke-width="2">
                        <g>
                            <polyline stroke="#0D3E5D" points="0 138.5 52.6064453 115.416667 105.212891 115.416667 157.819336 92.3333333 210.425781 92.3333333 263.032227 92.3333333 315.638672 92.3333333 368.245117 92.3333333 420.851562 92.3333333 473.458008 92.3333333 526.064453 92.3333333 578.670898 92.3333333"></polyline>
                            <polyline stroke="#808080" points="0 138.5 52.6064453 138.5 105.212891 92.3333333 157.819336 92.3333333 210.425781 69.25 263.032227 69.25 315.638672 69.25 368.245117 23.0833333 420.851562 23.0833333 473.458008 0 526.064453 0 578.670898 0"></polyline>
                        </g>
                    </g>
                    <g transform="translate(23.303223, 0.000000)" fill-rule="nonzero" stroke="#FFFFFF">
                        <g>
                            <path d="M0,141.5 C0,143.156854 1.34314575,144.5 3,144.5 C4.65685425,144.5 6,143.156854 6,141.5 C6,139.843146 4.65685425,138.5 3,138.5 C1.34314575,138.5 0,139.843146 0,141.5" fill="#0D3E5D"></path>
                            <path d="M52.6064453,118.416667 C52.6064453,120.073521 53.9495911,121.416667 55.6064453,121.416667 C57.2632996,121.416667 58.6064453,120.073521 58.6064453,118.416667 C58.6064453,116.759812 57.2632996,115.416667 55.6064453,115.416667 C53.9495911,115.416667 52.6064453,116.759812 52.6064453,118.416667" fill="#0D3E5D"></path>
                            <path d="M105.212891,118.416667 C105.212891,120.073521 106.556036,121.416667 108.212891,121.416667 C109.869745,121.416667 111.212891,120.073521 111.212891,118.416667 C111.212891,116.759812 109.869745,115.416667 108.212891,115.416667 C106.556036,115.416667 105.212891,116.759812 105.212891,118.416667" fill="#0D3E5D"></path>
                            <path d="M157.819336,95.3333333 C157.819336,96.9901876 159.162482,98.3333333 160.819336,98.3333333 C162.47619,98.3333333 163.819336,96.9901876 163.819336,95.3333333 C163.819336,93.6764791 162.47619,92.3333333 160.819336,92.3333333 C159.162482,92.3333333 157.819336,93.6764791 157.819336,95.3333333" fill="#0D3E5D"></path>
                            <path d="M210.425781,95.3333333 C210.425781,96.9901876 211.768927,98.3333333 213.425781,98.3333333 C215.082635,98.3333333 216.425781,96.9901876 216.425781,95.3333333 C216.425781,93.6764791 215.082635,92.3333333 213.425781,92.3333333 C211.768927,92.3333333 210.425781,93.6764791 210.425781,95.3333333" fill="#0D3E5D"></path>
                            <path d="M263.032227,95.3333333 C263.032227,96.9901876 264.375372,98.3333333 266.032227,98.3333333 C267.689081,98.3333333 269.032227,96.9901876 269.032227,95.3333333 C269.032227,93.6764791 267.689081,92.3333333 266.032227,92.3333333 C264.375372,92.3333333 263.032227,93.6764791 263.032227,95.3333333" fill="#0D3E5D"></path>
                            <path d="M315.638672,95.3333333 C315.638672,96.9901876 316.981818,98.3333333 318.638672,98.3333333 C320.295526,98.3333333 321.638672,96.9901876 321.638672,95.3333333 C321.638672,93.6764791 320.295526,92.3333333 318.638672,92.3333333 C316.981818,92.3333333 315.638672,93.6764791 315.638672,95.3333333" fill="#0D3E5D"></path>
                            <path d="M368.245117,95.3333333 C368.245117,96.9901876 369.588263,98.3333333 371.245117,98.3333333 C372.901971,98.3333333 374.245117,96.9901876 374.245117,95.3333333 C374.245117,93.6764791 372.901971,92.3333333 371.245117,92.3333333 C369.588263,92.3333333 368.245117,93.6764791 368.245117,95.3333333" fill="#0D3E5D"></path>
                            <path d="M420.851562,95.3333333 C420.851562,96.9901876 422.194708,98.3333333 423.851562,98.3333333 C425.508417,98.3333333 426.851562,96.9901876 426.851562,95.3333333 C426.851562,93.6764791 425.508417,92.3333333 423.851562,92.3333333 C422.194708,92.3333333 420.851562,93.6764791 420.851562,95.3333333" fill="#0D3E5D"></path>
                            <path d="M473.458008,95.3333333 C473.458008,96.9901876 474.801154,98.3333333 476.458008,98.3333333 C478.114862,98.3333333 479.458008,96.9901876 479.458008,95.3333333 C479.458008,93.6764791 478.114862,92.3333333 476.458008,92.3333333 C474.801154,92.3333333 473.458008,93.6764791 473.458008,95.3333333" fill="#0D3E5D"></path>
                            <path d="M526.064453,95.3333333 C526.064453,96.9901876 527.407599,98.3333333 529.064453,98.3333333 C530.721307,98.3333333 532.064453,96.9901876 532.064453,95.3333333 C532.064453,93.6764791 530.721307,92.3333333 529.064453,92.3333333 C527.407599,92.3333333 526.064453,93.6764791 526.064453,95.3333333" fill="#0D3E5D"></path>
                            <path d="M578.670898,95.3333333 C578.670898,96.9901876 580.014044,98.3333333 581.670898,98.3333333 C583.327753,98.3333333 584.670898,96.9901876 584.670898,95.3333333 C584.670898,93.6764791 583.327753,92.3333333 581.670898,92.3333333 C580.014044,92.3333333 578.670898,93.6764791 578.670898,95.3333333" fill="#0D3E5D"></path>
                            <path d="M0,141.5 C0,143.156854 1.34314575,144.5 3,144.5 C4.65685425,144.5 6,143.156854 6,141.5 C6,139.843146 4.65685425,138.5 3,138.5 C1.34314575,138.5 0,139.843146 0,141.5" fill="#808080"></path>
                            <path d="M52.6064453,141.5 C52.6064453,143.156854 53.9495911,144.5 55.6064453,144.5 C57.2632996,144.5 58.6064453,143.156854 58.6064453,141.5 C58.6064453,139.843146 57.2632996,138.5 55.6064453,138.5 C53.9495911,138.5 52.6064453,139.843146 52.6064453,141.5" fill="#808080"></path>
                            <path d="M105.212891,95.3333333 C105.212891,96.9901876 106.556036,98.3333333 108.212891,98.3333333 C109.869745,98.3333333 111.212891,96.9901876 111.212891,95.3333333 C111.212891,93.6764791 109.869745,92.3333333 108.212891,92.3333333 C106.556036,92.3333333 105.212891,93.6764791 105.212891,95.3333333" fill="#808080"></path>
                            <path d="M157.819336,95.3333333 C157.819336,96.9901876 159.162482,98.3333333 160.819336,98.3333333 C162.47619,98.3333333 163.819336,96.9901876 163.819336,95.3333333 C163.819336,93.6764791 162.47619,92.3333333 160.819336,92.3333333 C159.162482,92.3333333 157.819336,93.6764791 157.819336,95.3333333" fill="#808080"></path>
                            <path d="M210.425781,72.25 C210.425781,73.9068542 211.768927,75.25 213.425781,75.25 C215.082635,75.25 216.425781,73.9068542 216.425781,72.25 C216.425781,70.5931458 215.082635,69.25 213.425781,69.25 C211.768927,69.25 210.425781,70.5931458 210.425781,72.25" fill="#808080"></path>
                            <path d="M263.032227,72.25 C263.032227,73.9068542 264.375372,75.25 266.032227,75.25 C267.689081,75.25 269.032227,73.9068542 269.032227,72.25 C269.032227,70.5931458 267.689081,69.25 266.032227,69.25 C264.375372,69.25 263.032227,70.5931458 263.032227,72.25" fill="#808080"></path>
                            <path d="M315.638672,72.25 C315.638672,73.9068542 316.981818,75.25 318.638672,75.25 C320.295526,75.25 321.638672,73.9068542 321.638672,72.25 C321.638672,70.5931458 320.295526,69.25 318.638672,69.25 C316.981818,69.25 315.638672,70.5931458 315.638672,72.25" fill="#808080"></path>
                            <path d="M368.245117,26.0833333 C368.245117,27.7401876 369.588263,29.0833333 371.245117,29.0833333 C372.901971,29.0833333 374.245117,27.7401876 374.245117,26.0833333 C374.245117,24.4264791 372.901971,23.0833333 371.245117,23.0833333 C369.588263,23.0833333 368.245117,24.4264791 368.245117,26.0833333" fill="#808080"></path>
                            <path d="M420.851562,26.0833333 C420.851562,27.7401876 422.194708,29.0833333 423.851562,29.0833333 C425.508417,29.0833333 426.851562,27.7401876 426.851562,26.0833333 C426.851562,24.4264791 425.508417,23.0833333 423.851562,23.0833333 C422.194708,23.0833333 420.851562,24.4264791 420.851562,26.0833333" fill="#808080"></path>
                            <path d="M473.458008,3 C473.458008,4.65685425 474.801154,6 476.458008,6 C478.114862,6 479.458008,4.65685425 479.458008,3 C479.458008,1.34314575 478.114862,0 476.458008,0 C474.801154,0 473.458008,1.34314575 473.458008,3" fill="#808080"></path>
                            <path d="M526.064453,3 C526.064453,4.65685425 527.407599,6 529.064453,6 C530.721307,6 532.064453,4.65685425 532.064453,3 C532.064453,1.34314575 530.721307,0 529.064453,0 C527.407599,0 526.064453,1.34314575 526.064453,3" fill="#808080"></path>
                            <path d="M578.670898,3 C578.670898,4.65685425 580.014044,6 581.670898,6 C583.327753,6 584.670898,4.65685425 584.670898,3 C584.670898,1.34314575 583.327753,0 581.670898,0 C580.014044,0 578.670898,1.34314575 578.670898,3" fill="#808080"></path>
                        </g>
                    </g>
                </g>
                <g transform="translate(24.000000, 20.000000)">
                    <g>
                        <line x1="0" y1="7" x2="12" y2="7" id="Path" stroke="#0D3E5D" stroke-width="2"></line>
                        <text id="2019" fill="#8C8C8C" fill-rule="nonzero" font-family="Helvetica" font-size="12" font-weight="normal">
                            <tspan x="22" y="12">2019</tspan>
                        </text>
                        <polygon id="Path" fill-opacity="0" fill="#FFFFFF" fill-rule="nonzero" points="0 0 51.5078125 0 51.5078125 14 0 14"></polygon>
                    </g>
                    <g transform="translate(63.007812, 0.000000)">
                        <line x1="0" y1="7" x2="12" y2="7" id="Path" stroke="#808080" stroke-width="2"></line>
                        <text id="2018" fill="#8C8C8C" fill-rule="nonzero" font-family="Helvetica" font-size="12" font-weight="normal">
                            <tspan x="22" y="12">2018</tspan>
                        </text>
                        <polygon id="Path" fill-opacity="0" fill="#FFFFFF" fill-rule="nonzero" points="0 0 51.53125 0 51.53125 14 0 14"></polygon>
                    </g>
                </g>
            </g>
        </g>
    </g>
</svg>