<?xml version="1.0" encoding="utf-8"?>
<!-- Generator: Adobe Illustrator 25.3.1, SVG Export Plug-In . SVG Version: 6.00 Build 0)  -->
<svg version="1.1" id="Layer_1" xmlns="http://www.w3.org/2000/svg" xmlns:xlink="http://www.w3.org/1999/xlink" x="0px" y="0px"
	 viewBox="0 0 34 37" style="enable-background:new 0 0 34 37;" xml:space="preserve">
<style type="text/css">
	.st0{fill-rule:evenodd;clip-rule:evenodd;fill:#808080;}
	.st1{filter:url(#Adobe_OpacityMaskFilter);}
	.st2{fill-rule:evenodd;clip-rule:evenodd;fill:#FFFFFF;}
	.st3{mask:url(#mask-2_1_);}
	.st4{fill-rule:evenodd;clip-rule:evenodd;fill:#D95945;}
	.st5{fill:none;stroke:#000000;stroke-width:2;}
</style>
<g id="Assets-Management">
	<g id="Shape_x2F_Color" transform="translate(-15.000000, -15.000000)">
		<g id="color-phase-design_1_" transform="translate(15.000000, 15.000000)">
			<g id="Mask">
				<path id="path-1_1_" class="st0" d="M17,0c9.4,0,17,7.6,17,16.9c0,4.6-1.8,8.7-4.8,11.8l3,5.1c0.6,1,0.2,2.3-0.8,2.9
					c-0.3,0.2-0.7,0.3-1.1,0.3H3.7c-1.2,0-2.1-1-2.1-2.1c0-0.4,0.1-0.7,0.3-1.1l3-5.1c-3-3-4.8-7.2-4.8-11.8C0,7.6,7.6,0,17,0z"/>
			</g>
			<defs>
				<filter id="Adobe_OpacityMaskFilter" filterUnits="userSpaceOnUse" x="-17" y="-16.9" width="68" height="67.7">
					<feColorMatrix  type="matrix" values="1 0 0 0 0  0 1 0 0 0  0 0 1 0 0  0 0 0 1 0"/>
				</filter>
			</defs>
			<mask maskUnits="userSpaceOnUse" x="-17" y="-16.9" width="68" height="67.7" id="mask-2_1_">
				<g class="st1">
					<path id="path-1_2_" class="st2" d="M17,0c9.4,0,17,7.6,17,16.9c0,4.6-1.8,8.7-4.8,11.8l3,5.1c0.6,1,0.2,2.3-0.8,2.9
						c-0.3,0.2-0.7,0.3-1.1,0.3H3.7c-1.2,0-2.1-1-2.1-2.1c0-0.4,0.1-0.7,0.3-1.1l3-5.1c-3-3-4.8-7.2-4.8-11.8C0,7.6,7.6,0,17,0z"/>
				</g>
			</mask>
			<g id="Group" class="st3">
				<g id="color-phase-design" transform="translate(-17.000000, -16.914286)">
					<rect y="0" class="st4" width="68" height="67.7"/>
				</g>
			</g>
		</g>
		<path class="st5" d="M32,16c4.4,0,8.4,1.8,11.3,4.7c2.9,2.9,4.7,6.9,4.7,11.3c0,4.6-1.9,8.7-5,11.6l0,0l3.3,5.8
			c0.2,0.3,0.2,0.6,0.1,0.9c-0.1,0.3-0.3,0.5-0.5,0.7c-0.2,0.1-0.4,0.1-0.6,0.1l0,0H18.7c-0.3,0-0.6-0.1-0.8-0.3
			c-0.2-0.2-0.3-0.5-0.3-0.8c0-0.2,0.1-0.4,0.1-0.6l0,0l3.3-5.8c-3.1-2.9-5-7-5-11.6c0-4.4,1.8-8.4,4.7-11.3
			C23.6,17.8,27.6,16,32,16z"/>
	</g>
</g>
</svg>
