<svg width="36" height="39" viewBox="0 0 36 39" fill="none" xmlns="http://www.w3.org/2000/svg">
<mask id="path-1-inside-1_252_5619" fill="white">
<path fill-rule="evenodd" clip-rule="evenodd" d="M31.002 30.4479C34.0979 27.215 36 22.8296 36 18C36 8.05887 27.9411 0 18 0C8.05887 0 0 8.05887 0 18C0 22.8296 1.90208 27.215 4.99801 30.4479L1.97841 35.6147C1.1018 37.1147 2.18366 39 3.921 39H32.079C33.8163 39 34.8982 37.1147 34.0216 35.6147L31.002 30.4479Z"/>
</mask>
<path fill-rule="evenodd" clip-rule="evenodd" d="M31.002 30.4479C34.0979 27.215 36 22.8296 36 18C36 8.05887 27.9411 0 18 0C8.05887 0 0 8.05887 0 18C0 22.8296 1.90208 27.215 4.99801 30.4479L1.97841 35.6147C1.1018 37.1147 2.18366 39 3.921 39H32.079C33.8163 39 34.8982 37.1147 34.0216 35.6147L31.002 30.4479Z" fill="#DBDBDB"/>
<path d="M31.002 30.4479L29.5575 29.0646L28.5139 30.1543L29.2753 31.457L31.002 30.4479ZM4.99801 30.4479L6.72475 31.457L7.48606 30.1543L6.44248 29.0646L4.99801 30.4479ZM1.97841 35.6147L3.70515 36.6239L3.70515 36.6239L1.97841 35.6147ZM34.0216 35.6147L32.2949 36.6239L32.2949 36.6239L34.0216 35.6147ZM34 18C34 22.2938 32.3112 26.189 29.5575 29.0646L32.4465 31.8311C35.8846 28.2409 38 23.3654 38 18H34ZM18 2C26.8366 2 34 9.16344 34 18H38C38 6.9543 29.0457 -2 18 -2V2ZM2 18C2 9.16344 9.16344 2 18 2V-2C6.9543 -2 -2 6.9543 -2 18H2ZM6.44248 29.0646C3.68876 26.189 2 22.2938 2 18H-2C-2 23.3654 0.115409 28.2409 3.55353 31.8311L6.44248 29.0646ZM3.70515 36.6239L6.72475 31.457L3.27126 29.4387L0.251665 34.6056L3.70515 36.6239ZM3.921 37C3.85699 37 3.81978 36.9848 3.79389 36.9692C3.76269 36.9504 3.72965 36.9189 3.70416 36.8744C3.67867 36.83 3.66812 36.7856 3.66762 36.7491C3.66721 36.7189 3.67286 36.6791 3.70515 36.6239L0.251666 34.6056C-1.40415 37.4389 0.639362 41 3.921 41V37ZM32.079 37H3.921V41H32.079V37ZM32.2949 36.6239C32.3271 36.6791 32.3328 36.7189 32.3324 36.7491C32.3319 36.7856 32.3213 36.83 32.2958 36.8744C32.2704 36.9189 32.2373 36.9504 32.2061 36.9692C32.1802 36.9848 32.143 37 32.079 37V41C35.3606 41 37.4042 37.4389 35.7483 34.6056L32.2949 36.6239ZM29.2753 31.457L32.2949 36.6239L35.7483 34.6056L32.7287 29.4387L29.2753 31.457Z" fill="black" mask="url(#path-1-inside-1_252_5619)"/>
</svg>
