<?xml version="1.0" encoding="UTF-8"?>
<svg width="34px" height="49px" viewBox="0 0 34 49" version="1.1" xmlns="http://www.w3.org/2000/svg" xmlns:xlink="http://www.w3.org/1999/xlink">
    <title>outfall_unknown</title>
    <defs>
        <path d="M17,0 C26.3888407,0 34,7.61115925 34,17 C34,24.2765214 29.4283341,30.485273 23.0005852,32.9106719 L23,45 C23,47.209139 21.209139,49 19,49 L15,49 C12.790861,49 11,47.209139 11,45 L11.0004148,32.9110492 C4.57214004,30.4859169 0,24.2768987 0,17 C0,7.61115925 7.61115925,0 17,0 Z" id="path-1"></path>
    </defs>
    <g id="Assets-Management" stroke="none" stroke-width="1" fill="none" fill-rule="evenodd">
        <g id="Shape/Color" transform="translate(-15.000000, -15.000000)">
            <g id="color-phase-design" transform="translate(15.000000, 15.000000)">
                <mask id="mask-2" fill="white">
                    <use xlink:href="#path-1"></use>
                </mask>
                <path stroke="#000000" d="M17,0.5 C21.5563492,0.5 25.6813492,2.34682541 28.6672619,5.33273811 C31.6531746,8.31865081 33.5,12.4436508 33.5,17 C33.5,20.4806829 32.4223642,23.7097053 30.5822693,26.3714058 C28.6245084,29.2033101 25.8040595,31.3933033 22.5006021,32.5610507 L22.5006021,32.5610507 L22.5,45 C22.5,45.9664983 22.1082492,46.8414983 21.4748737,47.4748737 C20.8414983,48.1082492 19.9664983,48.5 19,48.5 L19,48.5 L15,48.5 C14.0335017,48.5 13.1585017,48.1082492 12.5251263,47.4748737 C11.8917508,46.8414983 11.5,45.9664983 11.5,45.0000172 L11.5,45.0000172 L11.5004268,32.5614144 C8.19669244,31.3938168 5.37597881,29.2038246 3.41802639,26.3718334 C1.57775123,23.7100512 0.5,20.4808693 0.5,17 C0.5,12.4436508 2.34682541,8.31865081 5.33273811,5.33273811 C8.31865081,2.34682541 12.4436508,0.5 17,0.5 Z"></path>
                <g id="Group" mask="url(#mask-2)">
                    <g transform="translate(-15.000000, -15.000000)">
                        <rect id="color-phase-design" fill="#DBDBDB" x="0" y="0" width="64" height="64"></rect>
                    </g>
                </g>
            </g>
            <path d="M32,16 C36.418278,16 40.418278,17.790861 43.3137085,20.6862915 C46.209139,23.581722 48,27.581722 48,32 C48,35.3750379 46.9552497,38.5061309 45.1709837,41.0870746 C43.2069445,43.9280607 40.3477203,46.1030645 37.0006194,47.2033276 L37.0006194,47.2033276 L37,60 C37,60.8284271 36.6642136,61.5784271 36.1213203,62.1213203 C35.5784271,62.6642136 34.8284271,63 34,63 L34,63 L30,63 C29.1715729,63 28.4215729,62.6642136 27.8786797,62.1213203 C27.3357864,61.5784271 27,60.8284271 27,60.0000343 L27,60.0000343 L27.0004391,47.2036755 C23.6530453,46.1035766 20.7935409,43.9285718 18.829303,41.0874893 C17.0448623,38.5064663 16,35.3752187 16,32 C16,27.581722 17.790861,23.581722 20.6862915,20.6862915 C23.581722,17.790861 27.581722,16 32,16 Z" id="Combined-Shape" stroke="#000000" stroke-width="2"></path>
        </g>
    </g>
</svg>