<svg width="37" height="58" viewBox="0 0 37 58" fill="none" xmlns="http://www.w3.org/2000/svg">
<mask id="path-1-inside-1_252_5430" fill="white">
<path fill-rule="evenodd" clip-rule="evenodd" d="M25.5735 35.7992C32.2812 33.0058 37 26.3589 37 18.6038C37 8.32919 28.7173 0 18.5 0C8.28273 0 0 8.32919 0 18.6038C0 26.3589 4.71876 33.0058 11.4265 35.7992V54C11.4265 56.2091 13.2173 58 15.4265 58H21.5735C23.7827 58 25.5735 56.2091 25.5735 54V35.7992Z"/>
</mask>
<path fill-rule="evenodd" clip-rule="evenodd" d="M25.5735 35.7992C32.2812 33.0058 37 26.3589 37 18.6038C37 8.32919 28.7173 0 18.5 0C8.28273 0 0 8.32919 0 18.6038C0 26.3589 4.71876 33.0058 11.4265 35.7992V54C11.4265 56.2091 13.2173 58 15.4265 58H21.5735C23.7827 58 25.5735 56.2091 25.5735 54V35.7992Z" fill="#389675"/>
<path d="M25.5735 35.7992L24.8046 33.9529L23.5735 34.4656V35.7992H25.5735ZM11.4265 35.7992H13.4265V34.4656L12.1954 33.9529L11.4265 35.7992ZM35 18.6038C35 25.5286 30.7881 31.4611 24.8046 33.9529L26.3424 37.6455C33.7744 34.5505 39 27.1892 39 18.6038H35ZM18.5 2C27.6022 2 35 9.4232 35 18.6038H39C39 7.23519 29.8324 -2 18.5 -2V2ZM2 18.6038C2 9.4232 9.39783 2 18.5 2V-2C7.16763 -2 -2 7.23519 -2 18.6038H2ZM12.1954 33.9529C6.21188 31.4611 2 25.5286 2 18.6038H-2C-2 27.1892 3.22564 34.5505 10.6576 37.6455L12.1954 33.9529ZM13.4265 54V35.7992H9.42647V54H13.4265ZM15.4265 56C14.3219 56 13.4265 55.1046 13.4265 54H9.42647C9.42647 57.3137 12.1128 60 15.4265 60V56ZM21.5735 56H15.4265V60H21.5735V56ZM23.5735 54C23.5735 55.1046 22.6781 56 21.5735 56V60C24.8872 60 27.5735 57.3137 27.5735 54H23.5735ZM23.5735 35.7992V54H27.5735V35.7992H23.5735Z" fill="black" mask="url(#path-1-inside-1_252_5430)"/>
</svg>
